<svg width="60" height="30" viewBox="0 0 60 30" fill="none" xmlns="http://www.w3.org/2000/svg">
<path fill-rule="evenodd" clip-rule="evenodd" d="M29.2693 2C29.2693 1.44772 28.8216 1 28.2693 1L2.08423 1C1.53194 1 1.08423 1.44772 1.08423 2L1.08423 5.04579C1.08423 5.14641 1.1658 5.22798 1.26642 5.22798L6.82244 5.22798C7.37472 5.22798 7.82244 5.6757 7.82244 6.22798L7.82244 23.5378C7.82244 24.0901 7.37472 24.5378 6.82244 24.5378H1.26642C1.1658 24.5378 1.08423 24.6194 1.08423 24.72L1.08423 28C1.08423 28.5523 1.53194 29 2.08423 29L28.2693 29C28.8216 29 29.2693 28.5523 29.2693 28L29.2693 20.3412C29.2693 19.8356 28.8866 19.4208 28.4054 19.2657C26.5759 18.6758 25.2553 16.9889 25.2553 15C25.2553 13.0111 26.5759 11.3242 28.4054 10.7343C28.8866 10.5792 29.2693 10.1644 29.2693 9.65881V2ZM1.27869 19.3539C1.27191 19.3539 1.26642 19.3594 1.26642 19.3662L1.26642 22.5378C1.26642 23.0901 1.71413 23.5378 2.26642 23.5378H5.82244C6.37472 23.5378 6.82244 23.0901 6.82244 22.5378L6.82244 7.22798C6.82244 6.6757 6.37472 6.22798 5.82244 6.22798H2.26642C1.71413 6.22798 1.26642 6.6757 1.26642 7.22798L1.26642 9.9256C1.26642 9.93237 1.27191 9.93787 1.27869 9.93787H2.96586C3.51814 9.93787 3.96586 10.3856 3.96586 10.9379L3.96586 18.3539C3.96586 18.9062 3.51814 19.3539 2.96586 19.3539H1.27869ZM29.2693 0L30.2693 0L58.5973 0C59.1496 0 59.5973 0.447715 59.5973 1V29C59.5973 29.5523 59.1496 30 58.5973 30L1.08423 30C0.531944 30 0.0842285 29.5523 0.0842285 29L0.0842285 1C0.0842285 0.447715 0.531944 0 1.08423 0L29.2693 0ZM31.2693 1C30.717 1 30.2693 1.44772 30.2693 2V9.61592C30.2693 10.1332 30.6691 10.5537 31.1653 10.7001C33.052 11.2565 34.4263 12.9711 34.4263 15C34.4263 17.0289 33.052 18.7434 31.1653 19.2999C30.6691 19.4462 30.2693 19.8668 30.2693 20.3841L30.2693 28C30.2693 28.5523 30.717 29 31.2693 29H57.5973C58.1496 29 58.5973 28.5523 58.5973 28V24.6799C58.5973 24.6014 58.5337 24.5378 58.4553 24.5378H52.8992C52.3469 24.5378 51.8992 24.0901 51.8992 23.5378V6.22798C51.8992 5.6757 52.3469 5.22798 52.8992 5.22798L58.4553 5.22798C58.5337 5.22798 58.5973 5.16437 58.5973 5.08589V2C58.5973 1.44772 58.1496 1 57.5973 1L31.2693 1ZM30.2693 17.3435C30.2693 17.9412 30.8021 18.4146 31.3469 18.1689C32.5813 17.6121 33.4263 16.3928 33.4263 15C33.4263 13.6072 32.5813 12.3879 31.3469 11.8311C30.8021 11.5854 30.2693 12.0588 30.2693 12.6564V17.3435ZM29.2693 12.721C29.2693 12.1076 28.7092 11.6323 28.164 11.9136C27.023 12.5024 26.2553 13.6724 26.2553 15C26.2553 16.3276 27.023 17.4976 28.164 18.0864C28.7092 18.3677 29.2693 17.8924 29.2693 17.2789V12.721ZM2.96586 11.7815C2.96586 11.3156 2.58817 10.9379 2.12227 10.9379C1.65637 10.9379 1.27869 11.3156 1.27869 11.7815L1.27869 17.5103C1.27869 17.9762 1.65637 18.3539 2.12227 18.3539C2.58817 18.3539 2.96586 17.9762 2.96586 17.5103L2.96586 11.7815ZM58.4553 7.22798C58.4553 6.6757 58.0075 6.22798 57.4553 6.22798L53.8992 6.22798C53.3469 6.22798 52.8992 6.6757 52.8992 7.22798V22.5378C52.8992 23.0901 53.3469 23.5378 53.8992 23.5378H57.4553C58.0075 23.5378 58.4553 23.0901 58.4553 22.5378V19.4062C58.4553 19.3773 58.4318 19.3539 58.403 19.3539H56.7158C56.1635 19.3539 55.7158 18.9062 55.7158 18.3539V10.9379C55.7158 10.3856 56.1635 9.93787 56.7158 9.93787H58.403C58.4318 9.93787 58.4553 9.91445 58.4553 9.88557V7.22798ZM56.7158 11.7815C56.7158 11.3156 57.0935 10.9379 57.5594 10.9379C58.0253 10.9379 58.403 11.3156 58.403 11.7815V17.5103C58.403 17.9762 58.0253 18.3539 57.5594 18.3539C57.0935 18.3539 56.7158 17.9762 56.7158 17.5103V11.7815Z" fill="#6DBC60"/>
</svg>
